<svg xmlns="http://www.w3.org/2000/svg" viewBox="0 0 180 180" role="img" aria-label="ime icon">
  <defs>
    <linearGradient id="bg" x1="20" y1="16" x2="160" y2="164" gradientUnits="userSpaceOnUse">
      <stop offset="0" stop-color="#EC4899"/>
      <stop offset="1" stop-color="#DB2777"/>
    </linearGradient>
  </defs>
  <rect width="180" height="180" rx="40" fill="url(#bg)"/>
  <path d="M24 28c30-18 82-21 132 2v40C112 48 65 51 24 70V28z" fill="white" opacity=".16"/>
  <circle cx="142" cy="42" r="8" fill="white" opacity=".18"/>
  
      <rect x="34" y="64" width="112" height="74" rx="16" fill="white"/>
      <path d="M56 84h10M80 84h10M104 84h10M128 84h10M56 104h10M80 104h10M104 104h10M128 104h10" stroke="#DB2777" stroke-width="8" stroke-linecap="round"/>
      <path d="M66 124h48" stroke="#EC4899" stroke-width="10" stroke-linecap="round"/>
      <path d="M112 36h32a12 12 0 0 1 12 12v26l-15-10h-29a12 12 0 0 1-12-12v-4a12 12 0 0 1 12-12z" fill="#FCE7F3"/>
      <path d="M119 51h20" stroke="#DB2777" stroke-width="7" stroke-linecap="round"/>
</svg>
