<svg xmlns="http://www.w3.org/2000/svg" viewBox="0 0 256 256">
  <!-- 粉色背景 #EC4899 -->
  <rect width="256" height="256" rx="52" fill="#EC4899"/>
  <rect width="256" height="256" rx="52" fill="url(#grad)" opacity="0.3"/>
  <defs>
    <linearGradient id="grad" x1="0%" y1="0%" x2="100%" y2="100%">
      <stop offset="0%" style="stop-color:#FFFFFF;stop-opacity:0.4"/>
      <stop offset="100%" style="stop-color:#FFFFFF;stop-opacity:0"/>
    </linearGradient>
  </defs>
  <!-- 键盘图标 -->
  <rect x="48" y="80" width="160" height="96" rx="12" fill="white" opacity="0.95"/>
  <rect x="64" y="100" width="12" height="12" rx="3" fill="#EC4899" opacity="0.6"/>
  <rect x="88" y="100" width="12" height="12" rx="3" fill="#EC4899" opacity="0.5"/>
  <rect x="112" y="100" width="12" height="12" rx="3" fill="#EC4899" opacity="0.5"/>
  <rect x="136" y="100" width="12" height="12" rx="3" fill="#EC4899" opacity="0.5"/>
  <rect x="160" y="100" width="12" height="12" rx="3" fill="#EC4899" opacity="0.6"/>
  <rect x="184" y="100" width="12" height="12" rx="3" fill="#EC4899" opacity="0.4"/>
  <rect x="64" y="124" width="12" height="12" rx="3" fill="#EC4899" opacity="0.4"/>
  <rect x="88" y="124" width="12" height="12" rx="3" fill="#EC4899" opacity="0.6"/>
  <rect x="112" y="124" width="12" height="12" rx="3" fill="#EC4899" opacity="0.5"/>
  <rect x="136" y="124" width="12" height="12" rx="3" fill="#EC4899" opacity="0.5"/>
  <rect x="160" y="124" width="12" height="12" rx="3" fill="#EC4899" opacity="0.6"/>
  <rect x="184" y="124" width="12" height="12" rx="3" fill="#EC4899" opacity="0.4"/>
  <rect x="76" y="148" width="104" height="12" rx="6" fill="#EC4899" opacity="0.5"/>
</svg>