<svg xmlns="http://www.w3.org/2000/svg" viewBox="0 0 256 256">
  <!-- 蓝色背景 #165DFF -->
  <rect width="256" height="256" rx="52" fill="#165DFF"/>
  <rect width="256" height="256" rx="52" fill="url(#grad)" opacity="0.3"/>
  <defs>
    <linearGradient id="grad" x1="0%" y1="0%" x2="100%" y2="100%">
      <stop offset="0%" style="stop-color:#FFFFFF;stop-opacity:0.4"/>
      <stop offset="100%" style="stop-color:#FFFFFF;stop-opacity:0"/>
    </linearGradient>
  </defs>
  <!-- 数字转换图标 -->
  <path d="M76 80 L116 80 L116 104 L92 104 L92 120 L108 120 L108 144 L92 144 L92 176 L116 176 L116 200 L76 200 Z" fill="white" opacity="0.95"/>
  <path d="M140 80 L180 80 L180 104 L156 104 L156 128 L172 128 L172 152 L156 152 L156 176 L180 176 L180 200 L140 200 Z" fill="white" opacity="0.85"/>
  <path d="M84 152 L108 152 L108 176 L84 176 Z" fill="#165DFF" opacity="0.6"/>
</svg>