<svg xmlns="http://www.w3.org/2000/svg" viewBox="0 0 180 180" role="img" aria-label="translate icon">
  <defs>
    <linearGradient id="bg" x1="20" y1="16" x2="160" y2="164" gradientUnits="userSpaceOnUse">
      <stop offset="0" stop-color="#8B5CF6"/>
      <stop offset="1" stop-color="#6D38DD"/>
    </linearGradient>
  </defs>
  <rect width="180" height="180" rx="40" fill="url(#bg)"/>
  <path d="M24 28c30-18 82-21 132 2v40C112 48 65 51 24 70V28z" fill="white" opacity=".16"/>
  <circle cx="142" cy="42" r="8" fill="white" opacity=".18"/>
  
      <path d="M45 47h63a12 12 0 0 1 12 12v43a12 12 0 0 1-12 12H74l-23 18v-18h-6a12 12 0 0 1-12-12V59a12 12 0 0 1 12-12z" fill="white"/>
      <path d="M85 68l20 48M72 104h36M78 88h24" stroke="#6D38DD" stroke-width="8" stroke-linecap="round" stroke-linejoin="round"/>
      <path d="M83 78h59a10 10 0 0 1 10 10v34a10 10 0 0 1-10 10h-7v17l-22-17H83a10 10 0 0 1-10-10v-8h35a12 12 0 0 0 12-12V78H83z" fill="#EEE7FF" opacity=".95"/>
      <path d="M103 101h28M117 89v12M108 101c4 10 12 17 24 21M132 101c-4 10-12 17-24 21" stroke="#8B5CF6" stroke-width="7" stroke-linecap="round" stroke-linejoin="round"/>
</svg>
