<svg xmlns="http://www.w3.org/2000/svg" viewBox="0 0 256 256">
  <!-- 紫色背景 #8B5CF6 -->
  <rect width="256" height="256" rx="52" fill="#8B5CF6"/>
  <rect width="256" height="256" rx="52" fill="url(#grad)" opacity="0.3"/>
  <defs>
    <linearGradient id="grad" x1="0%" y1="0%" x2="100%" y2="100%">
      <stop offset="0%" style="stop-color:#FFFFFF;stop-opacity:0.4"/>
      <stop offset="100%" style="stop-color:#FFFFFF;stop-opacity:0"/>
    </linearGradient>
  </defs>
  <!-- fa-language 标准图标路径 -->
  <path d="M128 32 L128 64 L96 64 L96 96 L128 96 L128 128 L160 128 L160 96 L192 96 L192 64 L160 64 L160 32 Z M24 80 L56 80 L56 112 L24 112 Z M80 80 L112 80 L112 112 L80 112 Z M24 128 L56 128 L56 160 L24 160 Z M80 128 L112 128 L112 160 L80 160 Z" fill="white" transform="translate(40, 20)"/>
</svg>