<svg xmlns="http://www.w3.org/2000/svg" viewBox="0 0 96 96">
  <rect width="96" height="96" rx="20" fill="#8B5CF6"/>
  <!-- 翻译/语言气泡图标 -->
  <path d="M24 28 L72 28 A8 8 0 0 1 80 36 L80 52 A8 8 0 0 1 72 60 L48 60 L32 72 L36 60 L24 60 A8 8 0 0 1 16 52 L16 36 A8 8 0 0 1 24 28 Z" fill="white" opacity="0.95"/>
  <rect x="28" y="38" width="36" height="4" rx="2" fill="#8B5CF6"/>
  <rect x="28" y="48" width="28" height="4" rx="2" fill="#8B5CF6"/>
  <ellipse cx="68" cy="72" rx="12" ry="8" fill="white" opacity="0.8"/>
</svg>
