<svg xmlns="http://www.w3.org/2000/svg" viewBox="0 0 256 256">
  <!-- 青色背景 #36CFC9 -->
  <rect width="256" height="256" rx="52" fill="#36CFC9"/>
  <rect width="256" height="256" rx="52" fill="url(#grad)" opacity="0.3"/>
  <defs>
    <linearGradient id="grad" x1="0%" y1="0%" x2="100%" y2="100%">
      <stop offset="0%" style="stop-color:#FFFFFF;stop-opacity:0.4"/>
      <stop offset="100%" style="stop-color:#FFFFFF;stop-opacity:0"/>
    </linearGradient>
  </defs>
  <!-- fa-file-text 标准图标路径 -->
  <path d="M196 64 L108 64 L108 12 L228 12 L228 140 L196 140 Z M196 92 L196 108 L212 108 L212 92 Z M196 124 L196 140 L212 140 L212 124 Z M124 92 L124 108 L180 108 L180 92 Z M124 124 L124 140 L180 140 L180 124 Z M124 68 L124 84 L180 84 L180 68 Z M28 156 L28 188 L148 188 L148 156 Z M28 124 L28 140 L148 140 L148 124 Z M28 92 L28 108 L148 108 L148 92 Z" fill="white" transform="translate(20, 28)"/>
</svg>