<svg xmlns="http://www.w3.org/2000/svg" viewBox="0 0 96 96">
  <rect width="96" height="96" rx="20" fill="#14b8a6"/>
  <!-- 代码文档图标 -->
  <path d="M28 16 H60 L76 32 V76 A8 8 0 0 1 68 84 H28 A8 8 0 0 1 20 76 V24 A8 8 0 0 1 28 16 Z" fill="white" opacity="0.95"/>
  <polygon points="60 16 60 32 76 32" fill="white" opacity="0.95"/>
  <!-- 代码大括号 -->
  <path d="M38 40 C42 40 46 44 46 48 C46 44 50 40 54 40" stroke="#14b8a6" stroke-width="3" fill="none" stroke-linecap="round"/>
  <path d="M38 56 C42 56 46 52 46 48 C46 52 50 56 54 56" stroke="#14b8a6" stroke-width="3" fill="none" stroke-linecap="round"/>
</svg>
