<svg xmlns="http://www.w3.org/2000/svg" viewBox="0 0 256 256">
  <!-- 翡翠绿背景 #14B8A6 -->
  <rect width="256" height="256" rx="52" fill="#14B8A6"/>
  <rect width="256" height="256" rx="52" fill="url(#grad)" opacity="0.3"/>
  <defs>
    <linearGradient id="grad" x1="0%" y1="0%" x2="100%" y2="100%">
      <stop offset="0%" style="stop-color:#FFFFFF;stop-opacity:0.4"/>
      <stop offset="100%" style="stop-color:#FFFFFF;stop-opacity:0"/>
    </linearGradient>
  </defs>
  <!-- YAML 代码图标 -->
  <rect x="48" y="52" width="160" height="152" rx="12" fill="white" opacity="0.95"/>
  <rect x="68" y="76" width="8" height="8" rx="2" fill="#14B8A6" opacity="0.8"/>
  <rect x="84" y="76" width="60" height="6" rx="3" fill="#14B8A6" opacity="0.5"/>
  <rect x="76" y="96" width="8" height="8" rx="2" fill="#14B8A6" opacity="0.8"/>
  <rect x="92" y="96" width="68" height="6" rx="3" fill="#14B8A6" opacity="0.4"/>
  <rect x="76" y="116" width="8" height="8" rx="2" fill="#14B8A6" opacity="0.8"/>
  <rect x="92" y="116" width="52" height="6" rx="3" fill="#14B8A6" opacity="0.4"/>
  <rect x="84" y="136" width="8" height="8" rx="2" fill="#14B8A6" opacity="0.8"/>
  <rect x="100" y="136" width="72" height="6" rx="3" fill="#14B8A6" opacity="0.5"/>
  <rect x="84" y="156" width="8" height="8" rx="2" fill="#14B8A6" opacity="0.8"/>
  <rect x="100" y="156" width="56" height="6" rx="3" fill="#14B8A6" opacity="0.4"/>
  <rect x="92" y="176" width="8" height="8" rx="2" fill="#14B8A6" opacity="0.8"/>
  <rect x="108" y="176" width="44" height="6" rx="3" fill="#14B8A6" opacity="0.4"/>
</svg>